<svg version="1.1" id="logo" xmlns="http://www.w3.org/2000/svg" xmlns:xlink="http://www.w3.org/1999/xlink"
	 viewBox="0 0 1500 1500" xml:space="preserve">
	<g class="st0" style="fill: none; stroke: #000000; stroke-width: 2px;">
		<path d="M385.24,507.68c-3.6,0.86-7.59-0.87-8.5-4.68c-0.96-4.02,1.93-7.84,5.74-8.75c0.85-0.2,1.53-0.14,2.38-0.34
			c2.33-0.56,3.14-2.77,2.64-4.88c-0.81-3.39-4.28-4.79-7.45-4.04c-8.68,2.07-16.53,16.03-20.09,23.59
			c-13.22,27.99-22.61,57.98-33.83,86.83c-5.58,14.09-11.59,28.27-18.64,41.82c-3.39,6.4-7,13.75-11.55,19.09
			c-1.39,1.67-1.81,1.77-3.93,2.28c3.97-11.46,4.87-21.74,4.42-33.94c-0.95-19.91-2.64-40.08-1.12-59.91
			c1.58-20.51,6.55-36.24,13.35-55.54c-2.88,2.93-5.03,6.12-7.33,9.58c-10.36,16.57-18.19,34.33-25.51,52.4
			c-8.18,20.08-16.25,40.57-26.16,59.94c-8.08,15.8-22.57,44.1-41.62,48.65c-7.62,1.82-13.13-1.56-14.95-9.18
			c-1.97-8.25,1.67-18.29,10.56-20.42c4.02-0.96,7.8,0.82,8.81,5.05c0.96,4.02-1.41,9.06-5.65,10.07c-2.12,0.51-4.85-0.63-6.33-0.28
			c-2.33,0.56-2.74,4.46-2.28,6.36c1.01,4.23,5.38,5.65,9.19,4.74c10.37-2.48,19.35-13.57,24.93-22.07
			c16.04-24.64,28.93-56.8,40.13-83.86c5.79-14.14,11.59-28.27,19.11-41.7c6.24-11.33,13.38-22.66,23.44-31.1
			c-5.76,16.14-4.29,26.98-3.36,43.98c0.7,14.15,1.39,28.3,0.56,42.59c-0.88,13.19-2.8,25.73-6.52,38.25
			c-2.08,7.21-4.79,14.57-6.35,22.1c0.48-0.79,1.02-1.36,1.5-2.15c1.4-2.57,2.75-5.35,4.15-7.93c6.68-13.23,12.47-26.47,17.67-40.24
			l10.85-28.54l11.78-31.22c5.21-13.77,12.36-31.59,21.45-43.16c3.42-4.4,7.84-8.36,13.35-9.68c6.35-1.52,11.85,2.76,13.31,8.9
			C394.91,496.65,392.44,505.96,385.24,507.68"/>
		<path class="st4" d="M369.02,609.55c-1.98,7.63-8.71,15.95-6.74,24.21c0.96,4.02,4.44,4.53,8.04,3.67
			c17.78-4.25,39.17-27.04,50.04-41.49l2.46,1.87c-2.95,4.51-6.52,8.27-10.05,12.24c-11.37,12.34-25.82,26.75-42.75,30.8
			c-8.89,2.12-17.98-1.3-20.26-10.82c-3.19-13.33,4.2-28.3,11.75-38.82c10.23-14.3,27.01-29.27,44.57-33.47
			c3.6-0.86,8.98-0.8,10.09,3.85C419.91,577.25,382.05,604.2,369.02,609.55 M407.74,560.03c-12.91,3.09-30.68,32.61-35.92,44.38
			c9.87-5.49,43.57-28.31,40.23-42.28C411.59,560.23,409.43,559.63,407.74,560.03"/>
		<path class="st4" d="M433.11,607c-0.87,2-4.71,11.19-4.2,13.31c0.35,1.48,1.93,2.45,3.41,2.09c5.92-1.42,26.17-29.97,30.4-35.68
			l2.62,1.61c-5.38,10.24-23.7,35.64-35.55,38.47c-5.92,1.42-10.88-4.33-12.14-9.63c-2.23-9.31,2.47-19.61,6.04-28.07l16.17-37.2
			l19.05-4.55L433.11,607z M462.95,528.72c-4.44,1.06-9.33-1.57-10.44-6.23c-1.47-6.14,2.83-13.43,8.97-14.9
			c4.66-1.11,9.75,1.48,10.91,6.34C473.91,520.29,469.08,527.26,462.95,528.72"/>
		<path class="st4" d="M559.33,565.43c-8.67,11.47-32.57,31.27-44.74,39.33c-7.05,18.24-17.32,37.03-30.67,51.4
			c-7.79,8.57-21.48,20.57-33.12,23.35c-4.23,1.01-9.55-0.63-10.66-5.28c-4.75-19.89,41.78-54.5,57.14-64.21l12.98-29.95
			c-7.6,10.32-21.29,27.91-34.2,30.99c-6.56,1.57-12.62-4.14-14.09-10.28c-2.98-12.48,3.49-25.67,10.5-35.62
			c10.18-14.51,27.17-29.53,44.73-33.73c4.44-1.06,8.34-0.65,9.56,4.43c0.56,2.33,0.43,4.6,0.09,6.92l5.84-13.03l17.14-4.1
			l-32,72.97c14.88-9.82,28.58-22.71,40.12-36.21l2.04,1.97C559.82,564.65,559.49,565.17,559.33,565.43 M455.66,649.27
			c-3.96,4.97-11.94,16.5-10.32,23.27c0.66,2.75,4.08,3.95,6.62,3.34c18.62-4.45,37.02-43.52,42.58-60.51
			C481.42,623.2,465.12,637.39,455.66,649.27 M519.54,534.67c-6.56,1.57-20.2,19.37-24.06,24.77c-5.35,7.54-24.04,38.86-22.17,46.69
			c0.4,1.69,2.25,1.92,3.73,1.57c9.74-2.33,26.04-22.11,31.45-30.33c5.26-7.97,18-30.48,15.67-40.21
			C523.66,535.03,521.45,534.22,519.54,534.67"/>
		<path class="st4" d="M591.75,519.44l-12.43,28.48l0.69,0.06c3.63-3.55,7.07-9.74,9.85-13.99c5.63-8.28,19.05-25.13,29.42-27.61
			c5.93-1.42,10.63,3.27,11.94,8.78c2.07,8.68-1.01,16.35-5,24.01c-0.97,1.57-18.57,34.64-17.86,37.6c0.45,1.91,2.77,2.25,4.26,1.89
			c8.25-1.97,28.96-29.52,33.95-36.75l2.62,1.61c-6.28,10.23-26.45,36.3-38.51,39.18c-6.56,1.57-11.63-2.81-13.1-8.95
			c-2.02-8.46,1.39-16.66,5.21-24.06l14.32-27.13c1.24-2.31,4.58-8.92,3.97-11.46c-0.25-1.06-1.89-1.34-2.73-1.14
			c-10.79,2.58-31.32,32.76-37.49,42.52c-8.15,12.69-14.73,26.34-20.84,40.1l-19.05,4.55l32.15-72.34
			c10.21-22.8,20.57-44.96,34.35-65.93c7.51-11.64,24.22-35.32,38.61-38.76c2.96-0.71,6.65-0.25,7.51,3.35
			C659.16,446.74,607.33,503.19,591.75,519.44 M645.52,423.37c-15.24,3.64-43.81,72.21-49.5,86.77c9.07-9.77,17.93-19.5,26.12-30.18
			c7.49-9.84,30.19-41.22,27.06-54.34C648.79,423.94,647.21,422.97,645.52,423.37"/>
		<path class="st4" d="M701.29,478.29c-5.56,6.7-11.28,13.66-17.1,20.19c-0.53,0.58-1.28,1.2-1.76,1.99
			c-0.32,0.52-0.75,1.52-1.03,2.26c-3.08,6.78-6.11,13.76-9.18,20.54c-3.03,6.99-6.32,13.82-9.35,20.8
			c-1.89,4.26-8.09,16.7-6.93,21.57c0.51,2.12,2.88,2.67,4.78,2.21c17.14-4.1,33.86-33.37,40.97-47.6
			c-0.72-2.07-1.38-3.92-1.89-6.03c-2.02-8.47,1.76-27.27,11.49-29.59c1.9-0.45,3.37,0.99,3.77,2.68
			c2.13,8.89-4.74,24.17-8.72,31.84c1.54,4.55,5.53,6.29,9.97,5.22c2.33-0.56,3.97-1.17,6.15-2.36l1.45,2.34
			c-2.34,1.45-4.51,2.64-7.05,3.25c-5.5,1.32-9.44-0.2-13.1-4.25c-6.76,15.71-25.52,43.91-43.09,48.1
			c-7.62,1.82-13.37-3.52-15.09-10.71c-3.94-16.51,9.25-41.81,16.36-56.03c11.21-22.36,52.34-101.1,78.59-107.37
			c3.39-0.81,6.54,0.23,7.4,3.82C752.1,418.5,713.26,463.8,701.29,478.29 M739.83,400.85c-16.08,3.84-45.44,71.04-51.73,87.75
			c9.34-9.61,17.47-20.5,25.71-30.98c7.22-9.11,32.47-41.99,29.48-54.47C742.93,401.67,741.52,400.44,739.83,400.85"/>
		<path class="st4" d="M784.83,510.46c-4.02,0.96-7.6,0.03-11.01-2.07c-2.36,4.14-4.42,8.66-6.73,13.02
			c-5.82,11.23-19.36,29.46-32.27,32.54c-8.47,2.02-14.84-4.06-16.71-11.89c-6.32-26.45,25.69-64.75,50.45-70.67
			c5.08-1.21,9.87,0.1,11.18,5.6c2.07,8.68-1.79,19.67-4.25,28.08c2.61,2.51,5.46,3.17,8.84,2.36c1.48-0.36,2.65-1.08,4.08-1.65
			l1.29,2.6C788.11,509.23,786.52,510.06,784.83,510.46 M772.27,474.76c-13.12,3.14-46.37,59.63-43.19,72.96
			c0.66,2.75,3.55,3.63,6.09,3.02c14.6-3.49,30-32.67,36.25-44.9c-0.51-1.22-1.03-2.44-1.33-3.71c-1.67-6.98,0.84-15.19,6.75-19.51
			c0.28-1.63,0.4-3,0.05-4.48C776.27,475.6,775.02,474.11,772.27,474.76"/>
		<path class="st4" d="M842.53,509.44c-1.19,2.52-4.7,10.3-4.09,12.84c0.46,1.9,2.14,2.4,3.83,1.99
			c5.5-1.31,19.08-18.43,22.46-23.04c3.21-4.35,6.01-9.49,9.79-13.3l2.36,1.45c-2.9,4.72-6.27,9.33-9.7,13.73
			c-6.85,8.79-16.12,22.42-27.54,25.15c-6.14,1.47-10.48-1.75-11.9-7.67c-1.26-5.29-0.65-8.34,0.51-13.77
			c-6.06,9.28-20.41,28.82-32.04,31.6c-5.93,1.42-11.16-2.7-12.53-8.41c-2.23-9.31,0.77-18.31,4.55-26.82l17.18-38.56l18.83-4.5
			l-26.75,60.31c-1.03,2.26-4.91,10.35-4.4,12.46c0.46,1.91,2.99,2.19,4.47,1.84c4.02-0.96,12.24-9.64,15.12-12.56
			c3.25-3.24,5.93-7.01,8.61-10.78c9.58-13.25,12.99-21.45,19.69-36.47c3.24-7.04,6.27-14.03,9.51-21.06l18.83-4.5L842.53,509.44z"
			/>
		<path class="st4" d="M937.33,451.89c0.45,1.9,2.78,1.35,4.05,1.04l0.23,2.85c-1.59,0.83-3.28,1.23-5.19,1.69
			c-5.29,1.27-9.03,0.59-12.68-3.46l-42.07,57.03c-1.02,1.36-1.78,3.78-2.53,5.3l-19.05,4.55l34.47-77.59l19.26-4.6l-25.29,57.05
			l33.83-45.67c0.5-7.28,3.66-16.53,11.49-18.4l13.12-3.14C944.65,432.92,936.17,447.03,937.33,451.89"/>
		<path class="st4" d="M980.88,426.5l-12.43,28.47l0.68,0.06c3.63-3.55,7.07-9.74,9.86-13.99c5.63-8.28,19.05-25.13,29.42-27.61
			c5.93-1.42,10.63,3.28,11.94,8.78c2.07,8.68-1.01,16.35-5,24.01c-0.97,1.57-18.57,34.64-17.86,37.6c0.45,1.91,2.77,2.25,4.26,1.89
			c8.25-1.97,28.96-29.52,33.94-36.75l2.62,1.61c-6.28,10.23-26.45,36.3-38.51,39.18c-6.56,1.57-11.63-2.81-13.1-8.95
			c-2.02-8.46,1.39-16.66,5.21-24.06l14.32-27.14c1.24-2.31,4.58-8.92,3.97-11.46c-0.25-1.06-1.89-1.34-2.73-1.14
			c-10.79,2.58-31.32,32.76-37.49,42.52c-8.15,12.69-14.73,26.34-20.84,40.1l-19.05,4.55l32.15-72.34
			c10.21-22.8,20.57-44.96,34.35-65.93c7.51-11.64,24.22-35.32,38.61-38.76c2.96-0.71,6.65-0.25,7.51,3.35
			C1048.29,353.79,996.46,410.25,980.88,426.5 M1034.65,330.43c-15.24,3.64-43.81,72.22-49.51,86.78
			c9.07-9.78,17.93-19.5,26.12-30.18c7.49-9.84,30.19-41.22,27.06-54.34C1037.92,330.99,1036.35,330.02,1034.65,330.43"/>
		<path class="st4" d="M1101.07,434.92c-4.02,0.96-7.6,0.03-11.01-2.07c-2.36,4.14-4.42,8.66-6.73,13.02
			c-5.82,11.23-19.36,29.46-32.27,32.54c-8.47,2.02-14.84-4.06-16.71-11.89c-6.32-26.45,25.69-64.75,50.45-70.67
			c5.08-1.21,9.87,0.1,11.18,5.6c2.07,8.68-1.79,19.67-4.25,28.09c2.61,2.51,5.46,3.17,8.84,2.36c1.48-0.36,2.65-1.08,4.08-1.65
			l1.29,2.6C1104.35,433.69,1102.76,434.52,1101.07,434.92 M1088.51,399.22c-13.12,3.14-46.37,59.63-43.19,72.96
			c0.66,2.75,3.55,3.63,6.09,3.02c14.6-3.49,30-32.67,36.25-44.9c-0.51-1.22-1.03-2.44-1.33-3.71c-1.67-6.98,0.84-15.19,6.75-19.51
			c0.28-1.63,0.4-3,0.05-4.48C1092.51,400.06,1091.26,398.56,1088.51,399.22"/>
		<path class="st4" d="M1169.6,418.55c-4.02,0.96-7.6,0.03-11.01-2.07c-2.36,4.14-4.42,8.66-6.73,13.02
			c-5.82,11.23-19.36,29.46-32.27,32.54c-8.47,2.02-14.84-4.06-16.71-11.89c-6.32-26.45,25.69-64.75,50.45-70.67
			c5.08-1.21,9.87,0.1,11.18,5.6c2.07,8.68-1.79,19.67-4.25,28.09c2.61,2.51,5.46,3.17,8.84,2.36c1.48-0.35,2.65-1.08,4.08-1.65
			l1.29,2.6C1172.88,417.32,1171.29,418.15,1169.6,418.55 M1157.04,382.85c-13.12,3.14-46.37,59.63-43.19,72.96
			c0.66,2.75,3.55,3.63,6.09,3.02c14.6-3.49,30-32.67,36.25-44.9c-0.51-1.22-1.03-2.44-1.33-3.71c-1.67-6.98,0.84-15.19,6.75-19.51
			c0.28-1.63,0.4-3,0.05-4.48C1161.04,383.69,1159.79,382.2,1157.04,382.85"/>
		<path class="st4" d="M1236.63,410.15c-1.3,2.99-7.18,15.81-6.38,19.2c0.3,1.27,1.78,1.81,2.83,1.56
			c7.83-1.87,26.69-28.75,31.09-35.62l2.83,1.56c-7.03,10.85-23.7,35.64-36.39,38.68c-7.41,1.77-11.21-2.91-12.83-9.69
			c-1.01-4.23-0.93-6.71-0.41-11.09c-5.92,10.81-19.35,28.56-31.83,31.54c-8.25,1.97-13.84-3.63-15.66-11.24
			c-3.39-14.18,6.19-32.13,14.59-42.86c9.74-12.62,25.71-26.28,41.37-30.02c4.66-1.11,8.98-0.8,10.24,4.49
			c0.46,1.9,0.17,4.43,0.2,6.44l40.25-89.93l17.99-4.3L1236.63,410.15z M1228.44,365.58c-13.76,3.29-49.67,61.76-46.48,75.09
			c0.46,1.91,2.03,2.87,3.93,2.42c16.51-3.94,41.34-47.91,46-64.01c0.88-2.89,1.44-6.16,1.63-9.11c0.06-0.69-0.04-1.11-0.19-1.74
			C1232.82,366.1,1230.56,365.07,1228.44,365.58"/>
	</g>
<style>
    .st0 { animation: change_fill 3s linear 3s infinite; }
    @keyframes change_fill {
    0% { fill: #000000; }
    100% { fill: #000000; }
    }
</style>
</svg>
